<?xml version="1.0" encoding="utf-8"?>
<svg version="1.1" xmlns:xlink="http://www.w3.org/1999/xlink" width="16px" height="16px" xmlns="http://www.w3.org/2000/svg">
  <g transform="matrix(1 0 0 1 -226 -358 )">
    <path d="M 234 358  C 238.48 358  242 361.52  242 366  C 242 370.48  238.48 374  234 374  C 229.52 374  226 370.48  226 366  C 226 361.52  229.52 358  234 358  Z " fill-rule="nonzero" fill="#d7d7d7" stroke="none" />
    <path d="M 234 358.5  C 238.2 358.5  241.5 361.8  241.5 366  C 241.5 370.2  238.2 373.5  234 373.5  C 229.8 373.5  226.5 370.2  226.5 366  C 226.5 361.8  229.8 358.5  234 358.5  Z " stroke-width="1" stroke="#797979" fill="none" />
  </g>
</svg>