<?xml version="1.0" encoding="utf-8"?>
<svg version="1.1" xmlns:xlink="http://www.w3.org/1999/xlink" width="22px" height="22px" xmlns="http://www.w3.org/2000/svg">
  <g transform="matrix(1 0 0 1 -167 -260 )">
    <path d="M 178 260  C 184.16 260  189 264.84  189 271  C 189 277.16  184.16 282  178 282  C 171.84 282  167 277.16  167 271  C 167 264.84  171.84 260  178 260  Z " fill-rule="nonzero" fill="#81d3f8" stroke="none" />
    <path d="M 178 260.5  C 183.88 260.5  188.5 265.12  188.5 271  C 188.5 276.88  183.88 281.5  178 281.5  C 172.12 281.5  167.5 276.88  167.5 271  C 167.5 265.12  172.12 260.5  178 260.5  Z " stroke-width="1" stroke="#797979" fill="none" />
  </g>
</svg>