<?xml version="1.0" encoding="utf-8"?>
<svg version="1.1" xmlns:xlink="http://www.w3.org/1999/xlink" width="16px" height="16px" xmlns="http://www.w3.org/2000/svg">
  <g transform="matrix(1 0 0 1 -333 -358 )">
    <path d="M 341 358  C 345.48 358  349 361.52  349 366  C 349 370.48  345.48 374  341 374  C 336.52 374  333 370.48  333 366  C 333 361.52  336.52 358  341 358  Z " fill-rule="nonzero" fill="#ffffff" stroke="none" />
    <path d="M 341 358.5  C 345.2 358.5  348.5 361.8  348.5 366  C 348.5 370.2  345.2 373.5  341 373.5  C 336.8 373.5  333.5 370.2  333.5 366  C 333.5 361.8  336.8 358.5  341 358.5  Z " stroke-width="1" stroke="#797979" fill="none" />
  </g>
</svg>