<?xml version="1.0" encoding="utf-8"?>
<svg version="1.1" xmlns:xlink="http://www.w3.org/1999/xlink" width="25px" height="30px" xmlns="http://www.w3.org/2000/svg">
  <defs>
    <filter x="330px" y="330px" width="25px" height="30px" filterUnits="userSpaceOnUse" id="filter5">
      <feOffset dx="1" dy="1" in="SourceAlpha" result="shadowOffsetInner" />
      <feGaussianBlur stdDeviation="2.5" in="shadowOffsetInner" result="shadowGaussian" />
      <feComposite in2="shadowGaussian" operator="atop" in="SourceAlpha" result="shadowComposite" />
      <feColorMatrix type="matrix" values="0 0 0 0 0  0 0 0 0 0  0 0 0 0 0  0 0 0 0.698039215686274 0  " in="shadowComposite" />
    </filter>
    <g id="widget6">
      <path d="M 341.5 353.036928468354  C 338.7 348.40734059591  334.5 345.629587872444  334.5 341  C 334.5 338.585714285714  335.9 334.5  341.5 334.5  C 347.1 334.5  348.5 338.585714285714  348.5 341  C 348.5 345.629587872444  344.3 348.40734059591  341.5 353.036928468354  Z " fill-rule="nonzero" fill="#009dd9" stroke="none" />
      <path d="M 341.5 354  C 338.5 349  334 346  334 341  C 334 338.4  335.5 334  341.5 334  C 347.5 334  349 338.4  349 341  C 349 346  344.5 349  341.5 354  Z M 341.5 352.073856936707  C 344.1 347.81468119182  348 345.259175744887  348 341  C 348 338.771428571429  346.7 335  341.5 335  C 336.3 335  335 338.771428571429  335 341  C 335 345.259175744887  338.9 347.81468119182  341.5 352.073856936707  Z " fill-rule="nonzero" fill="#ffffff" stroke="none" />
    </g>
  </defs>
  <g transform="matrix(1 0 0 1 -330 -330 )">
    <use xlink:href="#widget6" filter="url(#filter5)" />
    <use xlink:href="#widget6" />
  </g>
</svg>